<svg width="54" height="56" viewBox="0 0 54 56" fill="none" xmlns="http://www.w3.org/2000/svg">
<path fill-rule="evenodd" clip-rule="evenodd" d="M50.3498 39.034H2.91344C2.68362 39.034 2.49733 38.8446 2.49733 38.611V34.3803H50.7659V38.611C50.7659 38.8446 50.5796 39.034 50.3498 39.034H50.3498ZM32.0403 52.5723H21.2215V41.5725H32.0403V52.5723ZM2.91344 3.49617H50.3498C50.5796 3.49617 50.7659 3.68559 50.7659 3.91924V31.8418H2.49732V3.91924C2.49732 3.68558 2.68362 3.49617 2.91342 3.49617H2.91344ZM50.3491 0.957825H2.91275C1.30408 0.957825 0 2.28373 0 3.91932V38.611C0 40.2466 1.30409 41.5725 2.91277 41.5725H18.7249V52.5723H12.0671C11.3777 52.5723 10.8188 53.1405 10.8188 53.8415C10.8188 54.5424 11.3777 55.1107 12.0671 55.1107H41.1947C41.8841 55.1107 42.443 54.5424 42.443 53.8415C42.443 53.1405 41.8841 52.5723 41.1947 52.5723H34.537V41.5725H50.3491C51.9578 41.5725 53.2619 40.2466 53.2619 38.611V3.91933C53.2619 2.28375 51.9578 0.957855 50.3491 0.957855L50.3491 0.957825Z" fill="white"/>
</svg>
