<svg width="14" height="18" viewBox="0 0 14 18" fill="none" xmlns="http://www.w3.org/2000/svg">
<path d="M6.4999 0C6.22376 0 5.9999 0.223858 5.9999 0.5V14.1658L1.52088 9.68679C1.42325 9.58916 1.26496 9.58916 1.16733 9.68679L0.106671 10.7474C0.00903958 10.8451 0.00903942 11.0034 0.10667 11.101L6.64741 17.6417C6.84267 17.837 7.15925 17.837 7.35451 17.6417L13.8953 11.101C13.9929 11.0034 13.9929 10.8451 13.8953 10.7475L12.8346 9.68679C12.737 9.58916 12.5787 9.58916 12.481 9.68679L7.9999 14.1679V0.5C7.9999 0.223858 7.77604 0 7.4999 0H6.4999Z" fill="#1A263D"/>
</svg>
