<svg width="487" height="157" viewBox="0 0 487 157" fill="none" xmlns="http://www.w3.org/2000/svg">
<g opacity="0.29">
<path fill-rule="evenodd" clip-rule="evenodd" d="M0 2.67095C0 1.19582 1.67835 0 3.74871 0C5.81907 0 7.49742 1.19582 7.49742 2.67095C7.49742 4.14609 5.81907 5.34191 3.74871 5.34191C1.67835 5.34191 0 4.14609 0 2.67095Z" fill="#FAE824"/>
<path fill-rule="evenodd" clip-rule="evenodd" d="M53.2103 2.67095C53.2103 1.19582 54.8887 0 56.959 0C59.0294 0 60.7077 1.19582 60.7077 2.67095C60.7077 4.14609 59.0294 5.34191 56.959 5.34191C54.8887 5.34191 53.2103 4.14609 53.2103 2.67095Z" fill="#FAE824"/>
<path fill-rule="evenodd" clip-rule="evenodd" d="M106.429 2.67095C106.429 1.19582 108.108 0 110.178 0C112.249 0 113.927 1.19582 113.927 2.67095C113.927 4.14609 112.249 5.34191 110.178 5.34191C108.108 5.34191 106.429 4.14609 106.429 2.67095Z" fill="#FAE824"/>
<path fill-rule="evenodd" clip-rule="evenodd" d="M159.64 2.67095C159.64 1.19582 161.318 0 163.388 0C165.459 0 167.137 1.19582 167.137 2.67095C167.137 4.14609 165.459 5.34191 163.388 5.34191C161.318 5.34191 159.64 4.14609 159.64 2.67095Z" fill="#FAE824"/>
<path fill-rule="evenodd" clip-rule="evenodd" d="M212.85 2.67095C212.85 1.19582 214.528 0 216.599 0C218.669 0 220.348 1.19582 220.348 2.67095C220.348 4.14609 218.669 5.34191 216.599 5.34191C214.528 5.34191 212.85 4.14609 212.85 2.67095Z" fill="#FAE824"/>
<path fill-rule="evenodd" clip-rule="evenodd" d="M266.069 2.67095C266.069 1.19582 267.747 0 269.817 0C271.888 0 273.566 1.19582 273.566 2.67095C273.566 4.14609 271.888 5.34191 269.817 5.34191C267.747 5.34191 266.069 4.14609 266.069 2.67095Z" fill="#FAE824"/>
<path fill-rule="evenodd" clip-rule="evenodd" d="M319.279 2.67095C319.279 1.19582 320.957 0 323.028 0C325.098 0 326.776 1.19582 326.776 2.67095C326.776 4.14609 325.098 5.34191 323.028 5.34191C320.957 5.34191 319.279 4.14609 319.279 2.67095Z" fill="#FAE824"/>
<path fill-rule="evenodd" clip-rule="evenodd" d="M372.498 2.67095C372.498 1.19582 374.177 0 376.247 0C378.317 0 379.996 1.19582 379.996 2.67095C379.996 4.14609 378.317 5.34191 376.247 5.34191C374.177 5.34191 372.498 4.14609 372.498 2.67095Z" fill="#FAE824"/>
<path fill-rule="evenodd" clip-rule="evenodd" d="M425.709 2.67095C425.709 1.19582 427.387 0 429.457 0C431.528 0 433.206 1.19582 433.206 2.67095C433.206 4.14609 431.528 5.34191 429.457 5.34191C427.387 5.34191 425.709 4.14609 425.709 2.67095Z" fill="#FAE824"/>
<path fill-rule="evenodd" clip-rule="evenodd" d="M478.918 2.67095C478.918 1.19582 480.596 0 482.667 0C484.737 0 486.415 1.19582 486.415 2.67095C486.415 4.14609 484.737 5.34191 482.667 5.34191C480.596 5.34191 478.918 4.14609 478.918 2.67095Z" fill="#FAE824"/>
<path fill-rule="evenodd" clip-rule="evenodd" d="M0 40.5856C0 39.1105 1.67835 37.9146 3.74871 37.9146C5.81907 37.9146 7.49742 39.1105 7.49742 40.5856C7.49742 42.0607 5.81907 43.2565 3.74871 43.2565C1.67835 43.2565 0 42.0607 0 40.5856Z" fill="#FAE824"/>
<path fill-rule="evenodd" clip-rule="evenodd" d="M53.2103 40.5856C53.2103 39.1105 54.8887 37.9146 56.959 37.9146C59.0294 37.9146 60.7077 39.1105 60.7077 40.5856C60.7077 42.0607 59.0294 43.2565 56.959 43.2565C54.8887 43.2565 53.2103 42.0607 53.2103 40.5856Z" fill="#FAE824"/>
<path fill-rule="evenodd" clip-rule="evenodd" d="M106.429 40.5856C106.429 39.1105 108.108 37.9146 110.178 37.9146C112.249 37.9146 113.927 39.1105 113.927 40.5856C113.927 42.0607 112.249 43.2565 110.178 43.2565C108.108 43.2565 106.429 42.0607 106.429 40.5856Z" fill="#FAE824"/>
<path fill-rule="evenodd" clip-rule="evenodd" d="M159.64 40.5856C159.64 39.1105 161.318 37.9146 163.388 37.9146C165.459 37.9146 167.137 39.1105 167.137 40.5856C167.137 42.0607 165.459 43.2565 163.388 43.2565C161.318 43.2565 159.64 42.0607 159.64 40.5856Z" fill="#FAE824"/>
<path fill-rule="evenodd" clip-rule="evenodd" d="M212.85 40.5856C212.85 39.1105 214.528 37.9146 216.599 37.9146C218.669 37.9146 220.348 39.1105 220.348 40.5856C220.348 42.0607 218.669 43.2565 216.599 43.2565C214.528 43.2565 212.85 42.0607 212.85 40.5856Z" fill="#FAE824"/>
<path fill-rule="evenodd" clip-rule="evenodd" d="M266.069 40.5856C266.069 39.1105 267.747 37.9146 269.817 37.9146C271.888 37.9146 273.566 39.1105 273.566 40.5856C273.566 42.0607 271.888 43.2565 269.817 43.2565C267.747 43.2565 266.069 42.0607 266.069 40.5856Z" fill="#FAE824"/>
<path fill-rule="evenodd" clip-rule="evenodd" d="M319.279 40.5856C319.279 39.1105 320.957 37.9146 323.028 37.9146C325.098 37.9146 326.776 39.1105 326.776 40.5856C326.776 42.0607 325.098 43.2565 323.028 43.2565C320.957 43.2565 319.279 42.0607 319.279 40.5856Z" fill="#FAE824"/>
<path fill-rule="evenodd" clip-rule="evenodd" d="M372.498 40.5856C372.498 39.1105 374.177 37.9146 376.247 37.9146C378.317 37.9146 379.996 39.1105 379.996 40.5856C379.996 42.0607 378.317 43.2565 376.247 43.2565C374.177 43.2565 372.498 42.0607 372.498 40.5856Z" fill="#FAE824"/>
<path fill-rule="evenodd" clip-rule="evenodd" d="M425.709 40.5856C425.709 39.1105 427.387 37.9146 429.457 37.9146C431.528 37.9146 433.206 39.1105 433.206 40.5856C433.206 42.0607 431.528 43.2565 429.457 43.2565C427.387 43.2565 425.709 42.0607 425.709 40.5856Z" fill="#FAE824"/>
<path fill-rule="evenodd" clip-rule="evenodd" d="M478.918 40.5856C478.918 39.1104 480.596 37.9146 482.667 37.9146C484.737 37.9146 486.415 39.1104 486.415 40.5856C486.415 42.0607 484.737 43.2565 482.667 43.2565C480.596 43.2565 478.918 42.0607 478.918 40.5856Z" fill="#FAE824"/>
<path fill-rule="evenodd" clip-rule="evenodd" d="M0 78.5002C0 77.0251 1.67835 75.8292 3.74871 75.8292C5.81907 75.8292 7.49742 77.0251 7.49742 78.5002C7.49742 79.9753 5.81907 81.1711 3.74871 81.1711C1.67835 81.1711 0 79.9753 0 78.5002Z" fill="#FAE824"/>
<path fill-rule="evenodd" clip-rule="evenodd" d="M53.2103 78.5002C53.2103 77.0251 54.8887 75.8292 56.959 75.8292C59.0294 75.8292 60.7077 77.0251 60.7077 78.5002C60.7077 79.9753 59.0294 81.1711 56.959 81.1711C54.8887 81.1711 53.2103 79.9753 53.2103 78.5002Z" fill="#FAE824"/>
<path fill-rule="evenodd" clip-rule="evenodd" d="M106.429 78.5002C106.429 77.0251 108.108 75.8292 110.178 75.8292C112.249 75.8292 113.927 77.0251 113.927 78.5002C113.927 79.9753 112.249 81.1711 110.178 81.1711C108.108 81.1711 106.429 79.9753 106.429 78.5002Z" fill="#FAE824"/>
<path fill-rule="evenodd" clip-rule="evenodd" d="M159.64 78.5002C159.64 77.0251 161.318 75.8292 163.388 75.8292C165.459 75.8292 167.137 77.0251 167.137 78.5002C167.137 79.9753 165.459 81.1711 163.388 81.1711C161.318 81.1711 159.64 79.9753 159.64 78.5002Z" fill="#FAE824"/>
<path fill-rule="evenodd" clip-rule="evenodd" d="M212.85 78.5002C212.85 77.0251 214.528 75.8292 216.599 75.8292C218.669 75.8292 220.348 77.0251 220.348 78.5002C220.348 79.9753 218.669 81.1711 216.599 81.1711C214.528 81.1711 212.85 79.9753 212.85 78.5002Z" fill="#FAE824"/>
<path fill-rule="evenodd" clip-rule="evenodd" d="M266.069 78.5002C266.069 77.0251 267.747 75.8292 269.817 75.8292C271.888 75.8292 273.566 77.0251 273.566 78.5002C273.566 79.9753 271.888 81.1711 269.817 81.1711C267.747 81.1711 266.069 79.9753 266.069 78.5002Z" fill="#FAE824"/>
<path fill-rule="evenodd" clip-rule="evenodd" d="M319.279 78.5002C319.279 77.0251 320.957 75.8292 323.028 75.8292C325.098 75.8292 326.776 77.0251 326.776 78.5002C326.776 79.9753 325.098 81.1711 323.028 81.1711C320.957 81.1711 319.279 79.9753 319.279 78.5002Z" fill="#FAE824"/>
<path fill-rule="evenodd" clip-rule="evenodd" d="M372.498 78.5002C372.498 77.0251 374.177 75.8292 376.247 75.8292C378.317 75.8292 379.996 77.0251 379.996 78.5002C379.996 79.9753 378.317 81.1711 376.247 81.1711C374.177 81.1711 372.498 79.9753 372.498 78.5002Z" fill="#FAE824"/>
<path fill-rule="evenodd" clip-rule="evenodd" d="M425.709 78.5002C425.709 77.0251 427.387 75.8292 429.457 75.8292C431.528 75.8292 433.206 77.0251 433.206 78.5002C433.206 79.9753 431.528 81.1711 429.457 81.1711C427.387 81.1711 425.709 79.9753 425.709 78.5002Z" fill="#FAE824"/>
<path fill-rule="evenodd" clip-rule="evenodd" d="M478.918 78.5002C478.918 77.025 480.596 75.8292 482.667 75.8292C484.737 75.8292 486.415 77.025 486.415 78.5002C486.415 79.9753 484.737 81.1711 482.667 81.1711C480.596 81.1711 478.918 79.9753 478.918 78.5002Z" fill="#FAE824"/>
<path fill-rule="evenodd" clip-rule="evenodd" d="M0 116.415C0 114.939 1.67835 113.744 3.74871 113.744C5.81907 113.744 7.49742 114.939 7.49742 116.415C7.49742 117.89 5.81907 119.086 3.74871 119.086C1.67835 119.086 0 117.89 0 116.415Z" fill="#FAE824"/>
<path fill-rule="evenodd" clip-rule="evenodd" d="M53.2103 116.415C53.2103 114.939 54.8887 113.744 56.959 113.744C59.0294 113.744 60.7077 114.939 60.7077 116.415C60.7077 117.89 59.0294 119.086 56.959 119.086C54.8887 119.086 53.2103 117.89 53.2103 116.415Z" fill="#FAE824"/>
<path fill-rule="evenodd" clip-rule="evenodd" d="M106.429 116.415C106.429 114.939 108.108 113.744 110.178 113.744C112.249 113.744 113.927 114.939 113.927 116.415C113.927 117.89 112.249 119.086 110.178 119.086C108.108 119.086 106.429 117.89 106.429 116.415Z" fill="#FAE824"/>
<path fill-rule="evenodd" clip-rule="evenodd" d="M159.64 116.415C159.64 114.939 161.318 113.744 163.388 113.744C165.459 113.744 167.137 114.939 167.137 116.415C167.137 117.89 165.459 119.086 163.388 119.086C161.318 119.086 159.64 117.89 159.64 116.415Z" fill="#FAE824"/>
<path fill-rule="evenodd" clip-rule="evenodd" d="M212.85 116.415C212.85 114.939 214.528 113.744 216.599 113.744C218.669 113.744 220.348 114.939 220.348 116.415C220.348 117.89 218.669 119.086 216.599 119.086C214.528 119.086 212.85 117.89 212.85 116.415Z" fill="#FAE824"/>
<path fill-rule="evenodd" clip-rule="evenodd" d="M266.069 116.415C266.069 114.939 267.747 113.744 269.817 113.744C271.888 113.744 273.566 114.939 273.566 116.415C273.566 117.89 271.888 119.086 269.817 119.086C267.747 119.086 266.069 117.89 266.069 116.415Z" fill="#FAE824"/>
<path fill-rule="evenodd" clip-rule="evenodd" d="M319.279 116.415C319.279 114.939 320.957 113.744 323.028 113.744C325.098 113.744 326.776 114.939 326.776 116.415C326.776 117.89 325.098 119.086 323.028 119.086C320.957 119.086 319.279 117.89 319.279 116.415Z" fill="#FAE824"/>
<path fill-rule="evenodd" clip-rule="evenodd" d="M372.498 116.415C372.498 114.939 374.177 113.744 376.247 113.744C378.317 113.744 379.996 114.939 379.996 116.415C379.996 117.89 378.317 119.086 376.247 119.086C374.177 119.086 372.498 117.89 372.498 116.415Z" fill="#FAE824"/>
<path fill-rule="evenodd" clip-rule="evenodd" d="M425.709 116.415C425.709 114.939 427.387 113.744 429.457 113.744C431.528 113.744 433.206 114.939 433.206 116.415C433.206 117.89 431.528 119.086 429.457 119.086C427.387 119.086 425.709 117.89 425.709 116.415Z" fill="#FAE824"/>
<path fill-rule="evenodd" clip-rule="evenodd" d="M478.918 116.415C478.918 114.939 480.596 113.744 482.667 113.744C484.737 113.744 486.415 114.939 486.415 116.415C486.415 117.89 484.737 119.086 482.667 119.086C480.596 119.086 478.918 117.89 478.918 116.415Z" fill="#FAE824"/>
<path fill-rule="evenodd" clip-rule="evenodd" d="M0 154.329C0 152.854 1.67835 151.658 3.74871 151.658C5.81907 151.658 7.49742 152.854 7.49742 154.329C7.49742 155.804 5.81907 157 3.74871 157C1.67835 157 0 155.804 0 154.329Z" fill="#FAE824"/>
<path fill-rule="evenodd" clip-rule="evenodd" d="M53.2103 154.329C53.2103 152.854 54.8887 151.658 56.959 151.658C59.0294 151.658 60.7077 152.854 60.7077 154.329C60.7077 155.804 59.0294 157 56.959 157C54.8887 157 53.2103 155.804 53.2103 154.329Z" fill="#FAE824"/>
<path fill-rule="evenodd" clip-rule="evenodd" d="M106.429 154.329C106.429 152.854 108.108 151.658 110.178 151.658C112.249 151.658 113.927 152.854 113.927 154.329C113.927 155.804 112.249 157 110.178 157C108.108 157 106.429 155.804 106.429 154.329Z" fill="#FAE824"/>
<path fill-rule="evenodd" clip-rule="evenodd" d="M159.64 154.329C159.64 152.854 161.318 151.658 163.388 151.658C165.459 151.658 167.137 152.854 167.137 154.329C167.137 155.804 165.459 157 163.388 157C161.318 157 159.64 155.804 159.64 154.329Z" fill="#FAE824"/>
<path fill-rule="evenodd" clip-rule="evenodd" d="M212.85 154.329C212.85 152.854 214.528 151.658 216.599 151.658C218.669 151.658 220.348 152.854 220.348 154.329C220.348 155.804 218.669 157 216.599 157C214.528 157 212.85 155.804 212.85 154.329Z" fill="#FAE824"/>
<path fill-rule="evenodd" clip-rule="evenodd" d="M266.069 154.329C266.069 152.854 267.747 151.658 269.817 151.658C271.888 151.658 273.566 152.854 273.566 154.329C273.566 155.804 271.888 157 269.817 157C267.747 157 266.069 155.804 266.069 154.329Z" fill="#FAE824"/>
<path fill-rule="evenodd" clip-rule="evenodd" d="M319.279 154.329C319.279 152.854 320.957 151.658 323.028 151.658C325.098 151.658 326.776 152.854 326.776 154.329C326.776 155.804 325.098 157 323.028 157C320.957 157 319.279 155.804 319.279 154.329Z" fill="#FAE824"/>
<path fill-rule="evenodd" clip-rule="evenodd" d="M372.498 154.329C372.498 152.854 374.177 151.658 376.247 151.658C378.317 151.658 379.996 152.854 379.996 154.329C379.996 155.804 378.317 157 376.247 157C374.177 157 372.498 155.804 372.498 154.329Z" fill="#FAE824"/>
<path fill-rule="evenodd" clip-rule="evenodd" d="M425.709 154.329C425.709 152.854 427.387 151.658 429.457 151.658C431.528 151.658 433.206 152.854 433.206 154.329C433.206 155.804 431.528 157 429.457 157C427.387 157 425.709 155.804 425.709 154.329Z" fill="#FAE824"/>
<path fill-rule="evenodd" clip-rule="evenodd" d="M478.918 154.329C478.918 152.854 480.596 151.658 482.667 151.658C484.737 151.658 486.415 152.854 486.415 154.329C486.415 155.804 484.737 157 482.667 157C480.596 157 478.918 155.804 478.918 154.329Z" fill="#FAE824"/>
</g>
</svg>
