<svg width="57" height="67" viewBox="0 0 57 67" fill="none" xmlns="http://www.w3.org/2000/svg">
<path fill-rule="evenodd" clip-rule="evenodd" d="M44.1721 30.4706C44.3135 29.3337 44.4548 28.1209 44.4548 26.9082V8.7168H54.0667C53.7133 12.6583 52.0171 25.089 44.1721 30.4706ZM31.0267 44.6448C30.1079 44.8722 29.1892 45.0238 28.2704 45.0238C27.2103 45.0238 26.1501 44.8722 25.1607 44.569C24.9486 44.4932 24.5953 44.3416 24.4539 44.3416C18.5878 42.2192 14.2059 35.2459 14.2059 26.984V2.34985H42.2642V6.89769V8.33784V26.984C42.2642 35.2459 37.8823 42.2192 31.9455 44.3416M42.2638 60.0314V64.2003H14.3469V60.0314C20.5664 59.5008 25.3723 53.9676 25.5137 46.9185C26.3618 47.0701 27.2806 47.2217 28.1993 47.2217C29.0474 47.2217 29.8956 47.1459 30.673 46.9943C30.9557 53.8919 35.9737 59.5008 42.2638 60.0314L42.2638 60.0314ZM2.19062 8.7168H12.0852V26.9082C12.0852 28.1967 12.1559 29.4095 12.3679 30.6222C4.31089 25.468 2.544 12.6583 2.19062 8.7168ZM55.9044 6.82176C55.6924 6.59436 55.4097 6.44278 55.127 6.44278H44.3843V1.13696C44.3843 0.53059 43.8896 0 43.3242 0H13.1457C12.5803 0 12.0855 0.530575 12.0855 1.13696V6.44278H1.06013C0.77743 6.44278 0.494716 6.59438 0.282699 6.82176C0.0706673 7.04915 0 7.35233 0 7.65553C0 7.88292 0.212032 12.7339 1.83756 18.343C4.09918 25.8469 7.91566 31.1527 13.0043 33.5782C14.7005 39.642 18.5877 44.4172 23.4643 46.3122V46.5396C23.4643 52.8307 19.0118 57.8334 13.287 57.8334C12.7216 57.8334 12.2269 58.364 12.2269 58.9703V65.4131C12.2269 66.0195 12.7216 66.5501 13.287 66.5501H43.3242C43.8896 66.5501 44.3843 66.0195 44.3843 65.4131V58.9703C44.3843 58.3639 43.8896 57.8334 43.3242 57.8334C37.5288 57.8334 32.7935 52.755 32.7935 46.5396V46.388C37.8821 44.493 41.84 39.642 43.5362 33.4266C48.4128 30.9253 52.1586 25.6953 54.3496 18.343C56.0458 12.7339 56.1871 7.80712 56.1871 7.65553C56.2578 7.35233 56.1165 7.04915 55.9044 6.82176Z" fill="white"/>
</svg>
