<svg width="54" height="52" viewBox="0 0 54 52" fill="none" xmlns="http://www.w3.org/2000/svg">
<path fill-rule="evenodd" clip-rule="evenodd" d="M50.4281 5.92143C49.7487 5.92143 49.1663 5.26215 49.1663 4.49299C49.1663 3.72383 49.7487 3.06455 50.4281 3.06455C51.1075 3.06455 51.6899 3.72383 51.6899 4.49299C51.6899 5.37203 51.1075 5.92143 50.4281 5.92143ZM48.6808 28.5568V31.7433H45.866V28.5568H48.6808ZM37.519 32.7322C36.0631 34.1607 32.763 38.0065 32.5689 44.1598H21.5039C21.3098 37.8966 18.0097 34.0508 16.5538 32.7322L26.0658 11.745V23.2825C26.0658 23.9418 26.454 24.3813 27.0364 24.3813C27.6188 24.3813 28.007 23.9418 28.007 23.2825V11.745L37.519 32.7322ZM34.5108 46.3574C34.6078 46.3574 34.7049 46.4673 34.7049 46.5772V49.3242C34.7049 49.4341 34.6078 49.5439 34.5108 49.5439H19.1751C19.078 49.5439 18.981 49.4341 18.981 49.3242V46.5772C18.981 46.4673 19.078 46.3574 19.1751 46.3574H20.534H33.4431H34.5108ZM25.6778 2.95465H28.4926V6.14119H25.6778V2.95465ZM8.10981 28.5568V31.7433H5.3921V28.5568H8.10981ZM3.64506 5.92143C2.96563 5.92143 2.38327 5.26215 2.38327 4.49299C2.38327 3.72383 2.96563 3.06455 3.64506 3.06455C4.32448 3.06455 4.90684 3.72383 4.90684 4.49299C4.90684 5.37203 4.32448 5.92143 3.64506 5.92143ZM50.4285 0.866879C48.9726 0.866879 47.8078 1.96568 47.4196 3.39414H30.3368V1.85582C30.3368 1.19654 29.9486 0.757019 29.3662 0.757019H24.6102C24.0279 0.757019 23.6396 1.19654 23.6396 1.85582V3.39414H6.75098C6.36274 1.9657 5.10093 0.866879 3.74208 0.866879C1.99497 0.866879 0.539062 2.51508 0.539062 4.49294C0.539062 6.4708 1.99497 8.119 3.74208 8.119C5.19799 8.119 6.36274 7.0202 6.75098 5.59174H18.2042C11.1187 9.2178 6.26568 17.1292 5.87743 26.3592H4.42151C3.83914 26.3592 3.4509 26.7987 3.4509 27.458V32.8421C3.4509 33.5014 3.83914 33.9409 4.42151 33.9409H9.17752C9.75988 33.9409 10.1481 33.5014 10.1481 32.8421V27.458C10.1481 26.7987 9.75988 26.3592 9.17752 26.3592H7.81867C8.30397 16.1403 14.9041 7.67948 23.7367 5.92138V7.13006C23.7367 7.78934 24.1249 8.22886 24.7073 8.22886H25.4838L14.5159 32.5125C14.3218 32.952 14.4188 33.6113 14.8071 33.9409C14.8071 33.9409 19.2719 37.4571 19.5631 44.1598H19.1748C18.0101 44.1598 17.0395 45.2586 17.0395 46.5772V49.3242C17.0395 50.6428 18.0101 51.7416 19.1748 51.7416H34.5105C35.6752 51.7416 36.6458 50.6428 36.6458 49.3242V46.5772C36.6458 45.2586 35.6752 44.1598 34.5105 44.1598C34.8017 37.4571 39.0724 34.0508 39.2665 33.9409C39.6547 33.6113 39.8489 33.0619 39.5577 32.5125L28.5898 8.33874H29.3662C29.9486 8.33874 30.3368 7.89922 30.3368 7.23994V6.03126C39.1694 7.78936 45.7696 16.2502 46.2549 26.4691H44.896C44.3137 26.4691 43.9254 26.9086 43.9254 27.5679V32.8421C43.9254 33.5014 44.3137 33.9409 44.896 33.9409H49.652C50.2344 33.9409 50.6226 33.5014 50.6226 32.8421V27.458C50.6226 26.7987 50.2344 26.3592 49.652 26.3592H48.1961C47.8079 17.2391 42.9548 9.32766 35.8693 5.59172H47.3226C47.7108 7.02016 48.9726 8.11898 50.3315 8.11898C52.0786 8.11898 53.5345 6.47078 53.5345 4.49292C53.6316 2.51508 52.1756 0.866859 50.4285 0.866859L50.4285 0.866879Z" fill="white"/>
</svg>
