<svg width="60" height="45" viewBox="0 0 60 45" fill="none" xmlns="http://www.w3.org/2000/svg">
<path fill-rule="evenodd" clip-rule="evenodd" d="M54.9974 36.0343C54.4455 36.0343 53.9975 35.5863 53.9975 35.0343V3.03431C53.9975 2.48431 53.5495 2.03431 52.9976 2.03431H7.00239C6.45045 2.03431 6.00249 2.48431 6.00249 3.03431V35.0343C6.00249 35.5863 5.55454 36.0343 5.0026 36.0343C4.45066 36.0343 4.00271 35.5863 4.00271 35.0343V3.03431C4.00271 1.38031 5.34857 0.0343099 7.0024 0.0343099H52.9976C54.6514 0.0343099 55.9973 1.38031 55.9973 3.03431V35.0343C55.9973 35.5863 55.5493 36.0343 54.9974 36.0343H54.9974Z" fill="white"/>
<path fill-rule="evenodd" clip-rule="evenodd" d="M55 44.0315H5C2.24201 44.0315 0 41.7895 0 39.0315C0 38.4795 0.447997 38.0315 0.999997 38.0315H23C23.552 38.0315 24 38.4795 24 39.0315C24 39.5835 23.552 40.0315 23 40.0315H2.17199C2.58399 41.1955 3.69599 42.0315 4.99999 42.0315H55C56.304 42.0315 57.416 41.1955 57.828 40.0315H37C36.448 40.0315 36 39.5835 36 39.0315C36 38.4795 36.448 38.0315 37 38.0315H59C59.552 38.0315 60 38.4795 60 39.0315C60 41.7895 57.758 44.0315 55 44.0315Z" fill="white"/>
</svg>
